<svg id="Layer_1" data-name="Layer 1" xmlns="http://www.w3.org/2000/svg" xmlns:xlink="http://www.w3.org/1999/xlink" viewBox="0 0 1920 1080"><defs><style>.cls-1{fill:url(#linear-gradient);}.cls-2{fill:#fff;}.cls-3{fill:url(#linear-gradient-2);}</style><linearGradient id="linear-gradient" x1="-3.4" y1="1063.07" x2="1915.65" y2="724.69" gradientUnits="userSpaceOnUse"><stop offset="0.01" stop-color="#b1bbd5"/><stop offset="0.03" stop-color="#b6c9e2"/><stop offset="0.05" stop-color="#bad4ed"/><stop offset="0.09" stop-color="#bcdbf3"/><stop offset="0.18" stop-color="#bdddf5"/><stop offset="0.87" stop-color="#cdc2e4"/><stop offset="0.99" stop-color="#d5bce0"/></linearGradient><linearGradient id="linear-gradient-2" x1="11.46" y1="922.85" x2="1835.65" y2="-130.34" gradientUnits="userSpaceOnUse"><stop offset="0.01" stop-color="#ec277a"/><stop offset="0.07" stop-color="#dc2984"/><stop offset="0.16" stop-color="#cb2b8e"/><stop offset="0.26" stop-color="#c12c94"/><stop offset="0.38" stop-color="#be2c96"/><stop offset="0.71" stop-color="#8c31b2"/><stop offset="0.99" stop-color="#7834bf"/></linearGradient></defs><title>Artboard 1</title><path id="curve_one" data-name="curve one" class="cls-1" d="M-.5,883.5c122.81-150,179.5-234.5,353-230S635,817,902.5,865.5,1918,765,1919.5,750.5s0,60.69,0,60.69V1079.5H-.5Z"/><path id="upper" class="cls-2" d="M134,1080c4.85-20.28,49.78-197.37,190-243,68.69-22.35,140.65-6.62,186,3,70,14.85,88.42,34.79,159.22,62.54C790.1,949.94,895.47,954.17,991,958c88,3.53,151.38-3.21,234-12,65-6.92,59.09-9.08,307-51,116.5-19.7,169.46-28,253-48,57.32-13.75,103.79-27,134-36v268Z"/><path class="cls-3" d="M0,0V903c14.93-34.16,55.11-113.51,144-173,26.79-17.93,116-76,231-67,67.65,5.26,121.72,31.92,203,72,50.32,24.81,46.44,28.3,100,54,39,18.69,98.48,46.85,181,67a828.61,828.61,0,0,0,146,22c27,1.64,64.69,2.6,168-6,87-7.24,154-15.5,187-20,175.74-24,263.62-35.9,372-58,77.67-15.83,141.86-31.42,187-43q.49-375.49,1-751Z"/></svg>