<svg id="Layer_1" data-name="Layer 1" xmlns="http://www.w3.org/2000/svg" xmlns:xlink="http://www.w3.org/1999/xlink" viewBox="0 0 1125 2436"><defs><style>.cls-1{fill:url(#linear-gradient);}.cls-2{fill:url(#linear-gradient-2);}</style><linearGradient id="linear-gradient" x1="-21.3" y1="1868.91" x2="1075.13" y2="-30.16" gradientUnits="userSpaceOnUse"><stop offset="0" stop-color="#ed277b"/><stop offset="1" stop-color="#7834bf"/></linearGradient><linearGradient id="linear-gradient-2" x1="-43.92" y1="2275.83" x2="1185.97" y2="1946.28" gradientUnits="userSpaceOnUse"><stop offset="0" stop-color="#d1e2ec"/><stop offset="0" stop-color="#bad6ef"/><stop offset="1" stop-color="#d4bce0"/></linearGradient></defs><title>landing-mobile</title><path id="upper" class="cls-1" d="M1.5-.5q-.5,941-1,1882c130.88-133.36,240.79-162.33,314-166C522.7,1705.05,706.32,1891.16,897,1861c75.38-11.92,133-50,133-50,50.26-33.22,80.06-73.88,95.5-98.5q.49-856.5,1-1713Z"/><path class="cls-2" d="M0,2133c123.65-219,241.5-277.49,328-289,170.7-22.71,286.54,128.4,502,95,94.72-14.68,166.94-58.55,212-92l83-75v664h0l-1-721c-91.93,84.17-110,96-110,96-15.35,10-73.35,47.1-151.39,53.15-33.43,2.59-71.58-.43-176.61-38.15-126.54-45.44-127.29-61.22-194-82-31.75-9.89-198.49-61.83-355.51,19.34C68.88,1798.29,24.86,1846.66-1,1881"/></svg>